<svg width="25" height="27" viewBox="0 0 25 27" fill="none" xmlns="http://www.w3.org/2000/svg">
<path fill-rule="evenodd" clip-rule="evenodd" d="M9.89472 0.751831C7.29407 0.751831 5.11623 2.70695 5.11623 5.2012V5.88602H4.09351C2.76256 5.88602 1.66495 6.92878 1.59679 8.25798L0.94622 20.9441C0.872931 22.3732 2.01193 23.5721 3.44294 23.5721H16.3465C17.7775 23.5721 18.9165 22.3732 18.8432 20.9441L18.1927 8.25798C18.1245 6.92878 17.0269 5.88602 15.6959 5.88602H14.6732V5.2012C14.6732 2.70695 12.4954 0.751831 9.89472 0.751831ZM14.6732 9.11431C14.8887 9.2697 15.0289 9.52287 15.0289 9.80881C15.0289 10.2814 14.6458 10.6645 14.1732 10.6645C13.7006 10.6645 13.3175 10.2814 13.3175 9.80881C13.3175 9.52287 13.4578 9.2697 13.6732 9.11431V6.88602H6.11623V9.11431C6.33169 9.2697 6.47193 9.52287 6.47193 9.80881C6.47193 10.2814 6.08882 10.6645 5.61623 10.6645C5.14365 10.6645 4.76054 10.2814 4.76054 9.80881C4.76054 9.52287 4.90078 9.2697 5.11623 9.11431V6.88602H4.09351C3.29494 6.88602 2.63638 7.51167 2.59548 8.30919L1.94491 20.9953C1.90093 21.8528 2.58434 22.5721 3.44294 22.5721H16.3465C17.2051 22.5721 17.8885 21.8528 17.8445 20.9953L17.194 8.3092C17.1531 7.51167 16.4945 6.88602 15.6959 6.88602H14.6732V9.11431ZM13.6732 5.88602V5.2012C13.6732 3.3331 12.02 1.75183 9.89472 1.75183C7.76949 1.75183 6.11623 3.3331 6.11623 5.2012V5.88602H13.6732Z" fill="black"/>
<circle cx="18.5" cy="20" r="6.5" fill="#E02D71"/>
<path d="M18.492 23.104C17.8307 23.104 17.2733 22.9627 16.82 22.68V21.824C17.2787 22.1547 17.82 22.32 18.444 22.32C18.812 22.32 19.1293 22.2187 19.396 22.016C19.6627 21.808 19.796 21.5307 19.796 21.184C19.796 20.8587 19.6787 20.5973 19.444 20.4C19.2093 20.1973 18.8947 20.096 18.5 20.096C18.244 20.096 18.0067 20.1387 17.788 20.224V19.624L19.292 18.168H17.028V17.4H20.46V18.064L19.028 19.44C19.476 19.488 19.8653 19.6693 20.196 19.984C20.5213 20.2933 20.684 20.6933 20.684 21.184C20.684 21.76 20.4733 22.224 20.052 22.576C19.636 22.928 19.116 23.104 18.492 23.104Z" fill="white"/>
</svg>
